<?xml version="1.0" encoding="UTF-8"?>
<svg version="1.1" xmlns="http://www.w3.org/2000/svg" width="100" height="100">
<path d="M0 0 C4.85650911 2.42825456 7.85076373 5.6810474 11 10 C12.79771734 15.59795526 12.91905626 21.63170898 10.5625 27.0625 C5.97638683 35.02121874 -1.34977814 39.48218975 -9.3125 43.5625 C-10.00633789 43.92150391 -10.70017578 44.28050781 -11.41503906 44.65039062 C-15.08288665 46.43532665 -17.11537096 47.28064107 -21 46 C-20.25488083 42.80663211 -19.75538629 40.7029842 -18 38 C-15.47607164 36.55177577 -13.04978471 35.66028477 -10.27734375 34.7890625 C-7.83861586 34.12970853 -7.83861586 34.12970853 -6 32 C-6.79921875 32.33773437 -7.5984375 32.67546875 -8.421875 33.0234375 C-27.25982004 40.67358889 -47.98918373 41.40400407 -67.0625 33.8125 C-68.38293716 33.22588316 -69.69946017 32.62949962 -71 32 C-69.80125164 28.40375492 -68.96359217 28.05897573 -65.75 26.25 C-64.98171875 25.80140625 -64.2134375 25.3528125 -63.421875 24.890625 C-59.57942004 23.47759318 -56.87001282 24.69738685 -53.125 26 C-40.2798831 30.11043741 -25.95348198 28.53618454 -13.77734375 23.09765625 C-11.6818447 21.97393017 -11.6818447 21.97393017 -10 19 C-9.41649495 16.54290625 -9.41649495 16.54290625 -10 14 C-12.71786475 11.35763149 -15.54438548 9.53582868 -19 8 C-19 7.34 -19 6.68 -19 6 C-17.57421875 4.74609375 -17.57421875 4.74609375 -15.6875 3.4375 C-15.07261719 3.00308594 -14.45773438 2.56867187 -13.82421875 2.12109375 C-9.48923118 -0.54302067 -4.92684034 -0.60000972 0 0 Z " fill="#1AC6F9" transform="translate(71,40)"/>
<path d="M0 0 C-1.11213866 3.49529294 -2.31573191 6.74469192 -4 10 C-3.42636719 9.855625 -2.85273437 9.71125 -2.26171875 9.5625 C15.07431662 5.77435267 35.10474393 6.7685281 51 15 C51 15.66 51 16.32 51 17 C43.42784909 21.60510402 38.43361716 22.27551902 29.8046875 20.6328125 C17.20380081 18.53697714 0.82592684 18.564399 -10 26 C-11.89942105 28.50378229 -12 29.83284809 -12 33 C-10.66667905 36.99996286 -8.5042173 37.83782337 -5 40 C-5 40.99 -5 41.98 -5 43 C-6.57533086 43.86883706 -8.16064509 44.71959068 -9.75 45.5625 C-11.07257812 46.27599609 -11.07257812 46.27599609 -12.421875 47.00390625 C-15.29749769 48.11494229 -16.2109994 48.19042708 -19 47 C-25.23987453 43.25851273 -29.66797738 38.99606785 -32 32 C-32.86773581 23.99122521 -31.48761009 18.44045847 -26.52734375 12.125 C-20.10456472 5.07968211 -9.69771587 -0.57045387 0 0 Z M-16 13 C-16.33 13.66 -16.66 14.32 -17 15 C-15.56068883 14.54738642 -14.12361001 14.08767021 -12.6875 13.625 C-11.88699219 13.36976562 -11.08648437 13.11453125 -10.26171875 12.8515625 C-7.77275472 12.01168189 -7.77275472 12.01168189 -5 10 C-9.47725284 10 -12.01550313 11.04534116 -16 13 Z " fill="#194EA5" transform="translate(49,16)"/>
</svg>
